# xmcd
#
# Track frame offsets:
#	150
#	23558
#	57112
#	72580
#	98895
#	129667
#	153620
#	169495
#	186712
#	200376
#	216344
#	245462
#	264005
#	298593
#
# Disc length: 4202 seconds
#
# Revision: 0
# Processed by: cddbd v1.5.2PL0 Copyright (c) Steve Scherf et al.
# Submitted via: SynApp - FreeCDDB Version: 2.3
#
DISCID=d710680e
DTITLE=Buddy Guy - Buddy Guy - Can't Quit The Blues [Box Set] CD3
DYEAR=00
DGENRE=Blues
TTITLE0=01 - Nobody Understands Me But My Guitar
TTITLE1=02 - Baby Please Don't Leave Me
TTITLE2=03 - Done Got Old
TTITLE3=04 - Honey Bee
TTITLE4=05 - Tramp
TTITLE5=06 - Crawlin' Kingsnake
TTITLE6=07 - Moanin' And Groanin'
TTITLE7=08 - Bad Life Blues
TTITLE8=09 - I Can't Be Satisfied
TTITLE9=11 - I'd Rather Be Blind, Crippled And Crazy
TTITLE10=12 - Somebody's Sleeping In My Bed
TTITLE11=13 - I Miss You (featuring Shemekia Copeland)
TTITLE12=14 - Cut You Loose
TTITLE13=15 - The Price You Gotta Pay (featuring Keith Richards)
EXTD=
EXTT0=
EXTT1=
EXTT2=
EXTT3=
EXTT4=
EXTT5=
EXTT6=
EXTT7=
EXTT8=
EXTT9=
EXTT10=
EXTT11=
EXTT12=
EXTT13=
PLAYORDER=
